# xmcd CD database file
#
# Track frame offsets:
#	150
#	13725
#	32587
#	48487
#	64800
#	81600
#	94275
#	110925
#	127125
#	149950
#	163975
#	180000
#	192552
#
# Disc length: 4281 seconds
#
# Revision: 0
# Processed by: cddbd v1.4PL0 Copyright (c) Steve Scherf et al.
# Submitted via: CDex 1.50
#
DISCID=cc10b70d
DTITLE=Blue Hammer - First Gear
DYEAR=2000
DGENRE=Blues
TTITLE0=Hot little mama
TTITLE1=Load a helpin' hand
TTITLE2=Sometimey woman
TTITLE3=Evening
TTITLE4=Virgin converter
TTITLE5=Sittin' on a boat dock
TTITLE6=Hello sundown
TTITLE7=Daddy rolling stone
TTITLE8=The sky ain't crying
TTITLE9=What about love
TTITLE10=I don't beleive
TTITLE11=I got sumpin' for you
TTITLE12=First gear
EXTD=YEAR: 2000
EXTT0=
EXTT1=
EXTT2=
EXTT3=
EXTT4=
EXTT5=
EXTT6=
EXTT7=
EXTT8=
EXTT9=
EXTT10=
EXTT11=
EXTT12=
PLAYORDER=
